<?xml version="1.0" encoding="UTF-8"?>
<svg version="1.1" xmlns="http://www.w3.org/2000/svg" width="500" height="500">
<path d="M0 0 C4.43062834 3.89939873 8.73061903 7.92548704 13 12 C13.65355469 12.60070312 14.30710937 13.20140625 14.98046875 13.8203125 C47.65264782 44.70755067 67.28626793 93.60496992 69.12451172 138.00756836 C70.54340687 196.036855 53.30924745 252.29476116 28 304 C27.55188965 304.9168457 27.1037793 305.83369141 26.64208984 306.77832031 C13.55108133 333.2707577 -2.6856393 358.45575107 -23 380 C-24.17191167 381.34963014 -25.33871393 382.7037163 -26.5 384.0625 C-33.64678702 392.22557325 -41.4419442 399.34130863 -50 406 C-50.55429687 406.43602539 -51.10859375 406.87205078 -51.6796875 407.32128906 C-75.61541955 426.03105295 -104.24064467 437.84101058 -135.09082031 434.79345703 C-165.05895305 431.11523378 -190.51510547 415.50235362 -212 395 C-213.3471906 393.84597276 -214.70065721 392.69919943 -216.0625 391.5625 C-269.53444636 344.94026578 -300.27713666 265.75439837 -314 198 C-314.2487085 196.80093018 -314.2487085 196.80093018 -314.50244141 195.57763672 C-325.22996528 142.76964325 -316.92743714 87.07379887 -287.01269531 41.79541016 C-281.53924315 33.72774967 -275.44636789 26.30129778 -269 19 C-268.278125 18.15566406 -267.55625 17.31132813 -266.8125 16.44140625 C-262.53926118 11.49212769 -258.01333865 7.18657754 -253 3 C-252.16210938 2.26265625 -251.32421875 1.5253125 -250.4609375 0.765625 C-181.03247046 -59.2909553 -72.10413328 -60.81626337 0 0 Z " fill="#A78CF1" transform="translate(371,55)"/>
<path d="M0 0 C6.53310551 3.37164292 10.5965475 9.18233406 13 16 C15.21323117 23.95837181 15.2708284 31.78996018 15.1875 40 C15.1865332 41.80984375 15.1865332 41.80984375 15.18554688 43.65625 C15.05910004 69.50760321 6.66141688 97.43594805 -11 117 C-11.81017578 117.93005859 -11.81017578 117.93005859 -12.63671875 118.87890625 C-17.11049987 123.70725278 -22.20104488 126.94304283 -28 130 C-28.60070312 130.34289062 -29.20140625 130.68578125 -29.8203125 131.0390625 C-37.68628886 134.81332021 -48.42188947 134.12766091 -56.7109375 132.0859375 C-63.31545501 129.69968992 -68.67632081 126.53404256 -74 122 C-74.86625 121.401875 -75.7325 120.80375 -76.625 120.1875 C-83.81157721 113.56828415 -86.88641006 105.71743233 -87.3359375 96.08203125 C-87.77930257 70.79115293 -76.92450556 50.10497493 -59.92578125 31.76171875 C-58.3175904 30.132597 -56.67720775 28.55740719 -55 27 C-54.175 26.175 -53.35 25.35 -52.5 24.5 C-51.675 23.675 -50.85 22.85 -50 22 C-49.5359375 21.48953125 -49.071875 20.9790625 -48.59375 20.453125 C-36.46152991 7.48830157 -18.27834398 -3.40696498 0 0 Z " fill="#045201" transform="translate(361,180)"/>
<path d="M0 0 C8.63699144 4.05816087 15.97272247 8.80165549 23.203125 15.03515625 C24.02683594 15.73640625 24.85054687 16.43765625 25.69921875 17.16015625 C44.72231665 33.77939934 63.21164931 57.1463106 66.203125 83.03515625 C66.9360166 96.19901697 65.58401742 105.65881325 57.203125 116.03515625 C49.17304759 124.63511012 37.80707529 130.25200367 26.0703125 131.3203125 C10.6166704 131.74044698 1.35075158 126.58070974 -9.63671875 116.31640625 C-11.18647631 114.63356701 -12.48663359 112.91246451 -13.796875 111.03515625 C-14.50328125 110.02839844 -15.2096875 109.02164063 -15.9375 107.984375 C-24.50416686 95.4029784 -29.83435528 81.6654431 -33.796875 67.03515625 C-34.11914062 65.85179687 -34.44140625 64.6684375 -34.7734375 63.44921875 C-36.79715283 54.5789151 -37.13167094 45.85873341 -37.234375 36.78515625 C-37.25669189 35.61307617 -37.27900879 34.44099609 -37.30200195 33.23339844 C-37.26788826 20.15217832 -33.50853383 8.91460655 -24.296875 -0.52734375 C-16.76753948 -3.61974941 -7.53248631 -2.99904548 0 0 Z " fill="#045201" transform="translate(152.796875,181.96484375)"/>
<path d="M0 0 C0.66 0 1.32 0 2 0 C2.391875 0.886875 2.78375 1.77375 3.1875 2.6875 C9.01798805 13.34321954 20.31138405 18.16011682 31.42895508 21.49023438 C48.92540222 26.50471135 69.82070362 26.10819427 87 20 C87.92039062 19.71125 88.84078125 19.4225 89.7890625 19.125 C99.03649552 15.91845976 107.5855717 10.32265176 112.09765625 1.46875 C112.39542969 0.9840625 112.69320312 0.499375 113 0 C113.66 0 114.32 0 115 0 C115.73467877 7.27876192 115.26883559 12.10998422 110.76171875 18.00390625 C100.59225882 29.52628768 84.93267885 34.85543794 70 37 C56.67804745 37.75433156 42.7946468 38.19107714 30 34 C29.38624512 33.80132324 28.77249023 33.60264648 28.14013672 33.39794922 C17.69399005 29.91763831 8.0191772 25.24510898 1.875 15.6875 C-0.66458553 10.59050729 -0.46849601 5.56989701 0 0 Z " fill="#085307" transform="translate(189,381)"/>
<path d="M0 0 C0.66 0.33 1.32 0.66 2 1 C-3.28 6.28 -8.56 11.56 -14 17 C-14.66 16.67 -15.32 16.34 -16 16 C-12.63699159 11.69114547 -9.03918174 8.14405459 -4.8671875 4.61328125 C-3.16296232 3.14080217 -1.56975784 1.61363306 0 0 Z " fill="#C8B8F5" transform="translate(121,55)"/>
</svg>
